#!OML:ASF F:\VICON\USERDATA\INSTALL\rory3\rory3.ASF
:FULLY-SPECIFIED
:DEGREES
36
root 3.07923 14.4659 -35.521 122.261 -10.7135 17.557
lowerback -7.82181 13.4985 -3.88694
upperback -14.735 20.9942 2.97745
thorax -14.9612 11.5162 3.6853
lowerneck -20.3803 -8.66426 37.6169
upperneck -0.471671 -21.4955 -25.0873
head -3.76978 -12.2066 -13.779
rclavicle -5.08889e-014 -1.59028e-015
rhumerus 30.8066 -29.2268 -27.552
rradius 41.4561
rwrist 16.4573
rhand -22.491 100.509
rfingers 7.12502
rthumb 183.935 -49.548
lclavicle -5.08889e-014 -1.59028e-015
lhumerus 119.663 -9.10238 47.7666
lradius 20.6037
lwrist -14.1131
lhand -43.9955 -57.8487
lfingers 7.12502
lthumb -16.8169 -28.5569
rfemur -137.674 -20.4216 -3.0387
rtibia 57.4437
rfoot -23.8811 -28.83
rtoes -3.25593
lfemur -38.5411 -0.129117 -35.2341
ltibia 45.1885
lfoot -0.847347 0.07136
ltoes -29.3928
37
root 3.0631 14.5103 -35.2321 123.516 -11.5463 18.0744
lowerback -7.70247 13.3657 -3.59554
upperback -15.1693 20.8391 2.6205
thorax -15.2742 11.3831 3.11133
lowerneck -20.9819 -8.35336 38.5674
upperneck 0.42354 -21.5027 -25.8126
head -3.61291 -12.2303 -14.2688
rclavicle -5.40694e-014 -3.49861e-014
rhumerus 30.6067 -29.2213 -28.3907
rradius 43.4405
rwrist 17.6034
rhand -36.5378 102.967
rfingers 7.12502
rthumb 170.371 -47.2729
lclavicle -5.40694e-014 -3.49861e-014
lhumerus 118.968 -12.2714 54.2974
lradius 18.81
lwrist -19.4855
lhand -43.6441 -65.9918
lfingers 7.12502
lthumb -16.4785 -36.6716
rfemur -135.943 -21.9095 -4.76607
rtibia 55.6617
rfoot -23.98 -29.9319
rtoes -6.15453
lfemur -37.0545 0.184496 -34.3932
ltibia 47.342
lfoot -0.070317 0.272866
ltoes -32.6898
38
root 3.04572 14.5644 -34.9434 125.009 -12.5694 18.498
lowerback -7.91592 13.1808 -3.56282
upperback -15.6244 20.6168 2.20759
thorax -15.4937 11.2615 2.68431
lowerneck -21.7875 -7.65315 40.052
upperneck 0.997668 -21.241 -26.5331
head -3.48699 -12.162 -14.9109
rclavicle 5.40694e-014 3.65764e-014
rhumerus 30.7572 -29.9511 -29.8089
rradius 44.7488
rwrist 21.0503
rhand -39.1895 100.405
rfingers 7.12502
rthumb 167.814 -49.9696
lclavicle 5.40694e-014 3.65764e-014
lhumerus 118.81 -10.99 54.436
lradius 19.0591
lwrist -17.0482
lhand -42.4689 -69.8442
lfingers 7.12502
lthumb -15.3468 -40.4337
rfemur -134.423 -23.434 -6.16614
rtibia 53.6145
rfoot -23.096 -30.3656
rtoes -5.47688
lfemur -35.8086 0.435373 -33.7044
ltibia 49.4831
lfoot 0.186945 0.114694
ltoes -36.9678
39
root 3.02816 14.6356 -34.6296 126.887 -14.2179 18.5117
lowerback -8.51468 12.9061 -4.29921
upperback -16.0742 20.2746 1.60663
thorax -15.6839 11.1861 2.50075
lowerneck -22.3579 -6.96971 41.4995
upperneck 1.47134 -20.9133 -27.1563
head -3.38209 -12.0427 -15.5063
rclavicle -1.46306e-013 -2.70347e-014
rhumerus 29.6131 -30.0713 -30.3196
rradius 47.967
rwrist 22.0731
rhand -39.1636 100.872
rfingers 7.12502
rthumb 167.839 -49.5019
lclavicle -1.46306e-013 -2.70347e-014
lhumerus 118.613 -9.99546 54.6106
lradius 19.3276
lwrist -14.9425
lhand -43.3305 -52.3544
lfingers 7.12502
lthumb -16.1767 -23.0094
rfemur -132.611 -25.3133 -8.52524
rtibia 51.2099
rfoot -23.0488 -31.0089
rtoes -5.54812
lfemur -35.1621 0.629852 -33.8278
ltibia 52.0089
lfoot 1.2563 0.0775491
ltoes -32.3936
40
root 3.00977 14.6978 -34.342 129.028 -16.0637 18.107
lowerback -9.16926 12.6643 -5.25213
upperback -16.5306 19.9912 0.883903
thorax -15.8935 11.1634 2.28259
lowerneck -23.0764 -6.43331 42.1007
upperneck 2.29019 -20.5548 -27.6424
head -3.04236 -11.8535 -15.3431
rclavicle 3.81667e-014 1.43125e-014
rhumerus 28.3086 -30.1364 -30.8503
rradius 51.5331
rwrist 22.0679
rhand -38.9377 100.726
rfingers 7.12502
rthumb 168.056 -49.6348
lclavicle 3.81667e-014 1.43125e-014
lhumerus 118.259 -9.39158 55.1259
lradius 19.3812
lwrist -13.4623
lhand -41.8312 -54.0854
lfingers 7.12502
lthumb -14.7325 -24.629
rfemur -130.818 -27.2104 -11.1437
rtibia 48.499
rfoot -22.2761 -31.7565
rtoes -5.99635
lfemur -34.5671 0.722136 -34.197
ltibia 54.6427
lfoot 0.848997 -0.0326808
ltoes -32.0371
41
root 2.99411 14.7765 -34.0388 130.389 -16.8215 18.1835
lowerback -9.19531 12.6336 -4.90035
upperback -16.8905 19.9657 0.540216
thorax -16.0489 11.0879 1.7283
lowerneck -24.0244 -5.40363 43.7091
upperneck 2.80519 -19.9981 -28.2309
head -2.78924 -11.6377 -15.9709
rclavicle 1.49486e-013 6.83819e-014
rhumerus 26.6587 -29.8127 -30.8859
rradius 54.5061
rwrist 22.2418
rhand -40.2218 96.8438
rfingers 7.12502
rthumb 166.818 -53.5929
lclavicle 1.49486e-013 6.83819e-014
lhumerus 117.68 -7.00135 53.1664
lradius 20.4202
lwrist -9.263
lhand -40.8006 -54.0552
lfingers 7.12502
lthumb -13.7394 -24.5288
rfemur -127.963 -28.4409 -13.3289
rtibia 45.451
rfoot -21.8767 -32.4449
rtoes -5.08503
lfemur -33.6148 1.1784 -33.2852
ltibia 57.516
lfoot 0.880615 -0.0127295
ltoes -32.8051
42
root 2.98358 14.8763 -33.724 131.761 -17.8701 18.7331
lowerback -9.29821 12.447 -4.44593
upperback -17.3186 19.6986 0.137633
thorax -16.1517 10.8777 1.10908
lowerneck -24.5448 -4.58781 45.5834
upperneck 3.03091 -19.6904 -28.66
head -2.76215 -11.5162 -16.4664
rclavicle 3.49861e-014 6.36111e-015
rhumerus 24.9983 -28.7163 -29.9151
rradius 56.3876
rwrist 21.6049
rhand -38.0819 100.639
rfingers 7.12502
rthumb 168.882 -49.6753
lclavicle 3.49861e-014 6.36111e-015
lhumerus 117.49 -7.88439 55.0843
lradius 19.0952
lwrist -10.377
lhand -42.3696 -51.9225
lfingers 7.12502
lthumb -15.2512 -22.5047
rfemur -124.696 -30.3183 -15.6829
rtibia 42.1808
rfoot -21.4071 -33.2117
rtoes -3.57498
lfemur -32.9066 1.12148 -32.364
ltibia 60.4637
lfoot 1.01026 -0.0250535
ltoes -33.4719
43
root 2.96949 14.9732 -33.4077 133.36 -19.3511 18.4912
lowerback -9.22549 12.3522 -4.47729
upperback -17.6894 19.5532 -0.482048
thorax -16.3953 10.7648 0.410485
lowerneck -24.4008 -4.30273 46.694
upperneck 3.29793 -19.5251 -28.9082
head -2.76757 -11.3974 -16.7165
rclavicle -3.11694e-013 -5.40694e-014
rhumerus 24.3135 -27.6292 -29.0341
rradius 56.8444
rwrist 20.8464
rhand -36.8434 102.584
rfingers 7.12502
rthumb 170.076 -47.6697
lclavicle -3.11694e-013 -5.40694e-014
lhumerus 116.533 -4.02408 50.5458
lradius 20.6882
lwrist -5.5405
lhand -43.1597 -48.8483
lfingers 7.12502
lthumb -16.0122 -19.4901
rfemur -121.284 -32.0409 -18.9793
rtibia 38.674
rfoot -19.7456 -34.5672
rtoes -4.71257
lfemur -32.178 1.22398 -32.2245
ltibia 63.4495
lfoot 0.943679 0.200769
ltoes -32.0863
44
root 2.95764 15.0802 -33.0851 134.44 -20.8904 18.2629
lowerback -8.67986 12.3281 -4.15874
upperback -17.9014 19.4386 -1.08173
thorax -16.5881 10.5897 -0.508754
lowerneck -23.2323 -4.75023 47.6173
upperneck 3.22696 -19.7743 -28.7681
head -3.09558 -11.3938 -16.5915
rclavicle -2.35361e-013 -4.77083e-014
rhumerus 24.1271 -26.7482 -28.345
rradius 56.9592
rwrist 20.6281
rhand -38.0056 101.53
rfingers 7.12502
rthumb 168.955 -48.7802
lclavicle -2.35361e-013 -4.77083e-014
lhumerus 115.702 -2.69654 49.3516
lradius 20.5936
lwrist -5.16917
lhand -42.9512 -49.4244
lfingers 7.12502
lthumb -15.8114 -20.0501
rfemur -117.156 -33.415 -22.5019
rtibia 34.9844
rfoot -17.8056 -35.9088
rtoes -7.41451
lfemur -30.7724 1.25506 -31.9978
ltibia 66.2299
lfoot 0.767418 0.678503
ltoes -30.4457
45
root 2.94666 15.1831 -32.7734 135.398 -23.0489 17.8511
lowerback -8.23548 12.161 -4.39442
upperback -17.9517 19.0788 -1.75161
thorax -16.6694 10.3677 -1.18427
lowerneck -22.4303 -4.22006 49.8211
upperneck 2.6254 -19.3415 -29.5353
head -3.51339 -11.2196 -17.1755
rclavicle 9.54166e-015 6.52014e-014
rhumerus 24.3156 -25.9429 -27.7855
rradius 56.7023
rwrist 20.4603
rhand -39.4847 100.111
rfingers 7.12502
rthumb 167.529 -50.2811
lclavicle 9.54166e-015 6.52014e-014
lhumerus 115.139 -2.77757 49.5776
lradius 19.4616
lwrist -6.46861
lhand -44.3089 -53.022
lfingers 7.12502
lthumb -17.1186 -23.7561
rfemur -112.849 -34.846 -26.0908
rtibia 31.0852
rfoot -15.2573 -36.696
rtoes -5.21321
lfemur -29.1 1.25224 -32.4472
ltibia 69.4552
lfoot 0.246335 1.54671
ltoes -32.9598
46
root 2.92897 15.2997 -32.4345 136.083 -24.0029 17.7881
lowerback -7.46465 12.2399 -3.46276
upperback -18.0819 19.1134 -2.13391
thorax -16.7883 10.1862 -2.19308
lowerneck -21.8143 -3.20843 53.4033
upperneck 1.83048 -18.8373 -31.1938
head -4.15841 -11.1283 -18.3834
rclavicle -1.55847e-013 -6.83819e-014
rhumerus 24.5788 -25.149 -27.3795
rradius 56.2926
rwrist 20.281
rhand -39.6773 100.236
rfingers 7.12502
rthumb 167.343 -50.1676
lclavicle -1.55847e-013 -6.83819e-014
lhumerus 113.772 -0.317751 45.8544
lradius 20.8071
lwrist -0.323618
lhand -44.3728 -53.5532
lfingers 7.12502
lthumb -17.18 -24.2927
rfemur -107.59 -35.5151 -30.2834
rtibia 26.9132
rfoot -12.8666 -38.7714
rtoes -8.89992
lfemur -27.8863 1.54583 -31.3711
ltibia 72.6449
lfoot 0.684133 2.37901
ltoes -29.9255
